<?xml version='1.0' encoding='utf-8'?>
<svg xmlns="http://www.w3.org/2000/svg" version="1.1" id="Layer_1" x="0px" y="0px" width="2200px" height="2200px" viewBox="0 0 2200 2200" enable-background="new 0 0 2200 2200"> <radialGradient id="SVGID_1_" cx="891.3312" cy="603.0123" r="26.25" gradientTransform="matrix(56.9935 0 0 -56.9935 -49699.5781 35468.4805)" gradientUnits="userSpaceOnUse"> <stop offset="0" style="stop-color:#6D6E71"/> <stop offset="1" style="stop-color:#000000"/> </radialGradient> <rect x="50.507" y="50.704" fill="url(#SVGID_1_)" width="2100" height="2100"/> <g> <g opacity="0.0769"> <path fill-rule="evenodd" clip-rule="evenodd" d="M1005.62,1200.71l-161.779,82.85l269.858,418.42l623.109-1009.312 C1345.589,538.727,1255.862,1107.005,1005.62,1200.71z"/> <g> <path fill-rule="evenodd" clip-rule="evenodd" d="M679.146,1289.687c-38.202,21.26-18.246,65.168,22.982,45.368l329.855-168.929 L679.146,1289.687z"/> <path fill-rule="evenodd" clip-rule="evenodd" d="M617.099,1162.445c-41.903,7.295-33.957,56.078,10.474,51.177l358.102-49.103 L617.099,1162.445z"/> <path fill-rule="evenodd" clip-rule="evenodd" d="M572.285,998.905c-45.791-7.82-50.849,46.085-3.09,57.351l387.705,80.693 L572.285,998.905z"/> <path fill-rule="evenodd" clip-rule="evenodd" d="M547.613,820.263c-47.83-24.116-67.016,32.797-17.91,61.338l401.326,219.975 L547.613,820.263z"/> <path fill-rule="evenodd" clip-rule="evenodd" d="M543.967,627.145c-42.619-37.934-74.033,13.393-31.098,56.11l353.761,335.887 L543.967,627.145z"/> </g> </g> <g opacity="0.1538"> <path fill-rule="evenodd" clip-rule="evenodd" d="M1003.433,1198.866l-161.779,82.85l269.858,418.42l623.109-1009.312 C1343.402,536.883,1253.674,1105.161,1003.433,1198.866z"/> <g> <path fill-rule="evenodd" clip-rule="evenodd" d="M676.959,1287.843c-38.202,21.26-18.246,65.168,22.982,45.368l329.855-168.929 L676.959,1287.843z"/> <path fill-rule="evenodd" clip-rule="evenodd" d="M614.912,1160.601c-41.903,7.295-33.957,56.078,10.474,51.177l358.102-49.103 L614.912,1160.601z"/> <path fill-rule="evenodd" clip-rule="evenodd" d="M570.098,997.061c-45.791-7.82-50.849,46.085-3.09,57.351l387.705,80.693 L570.098,997.061z"/> <path fill-rule="evenodd" clip-rule="evenodd" d="M545.426,818.419c-47.83-24.116-67.016,32.797-17.91,61.338l401.326,219.975 L545.426,818.419z"/> <path fill-rule="evenodd" clip-rule="evenodd" d="M541.779,625.3c-42.619-37.934-74.033,13.393-31.098,56.11l353.761,335.887 L541.779,625.3z"/> </g> </g> <g opacity="0.2308"> <path fill-rule="evenodd" clip-rule="evenodd" d="M1001.246,1197.022l-161.779,82.85l269.858,418.42l623.109-1009.313 C1341.215,535.039,1251.487,1103.317,1001.246,1197.022z"/> <g> <path fill-rule="evenodd" clip-rule="evenodd" d="M674.772,1285.999c-38.202,21.26-18.246,65.168,22.982,45.368l329.855-168.929 L674.772,1285.999z"/> <path fill-rule="evenodd" clip-rule="evenodd" d="M612.725,1158.757c-41.903,7.295-33.957,56.078,10.474,51.177l358.102-49.103 L612.725,1158.757z"/> <path fill-rule="evenodd" clip-rule="evenodd" d="M567.911,995.217c-45.79-7.82-50.849,46.085-3.09,57.351l387.705,80.693 L567.911,995.217z"/> <path fill-rule="evenodd" clip-rule="evenodd" d="M543.238,816.575c-47.83-24.116-67.016,32.797-17.91,61.338l401.326,219.975 L543.238,816.575z"/> <path fill-rule="evenodd" clip-rule="evenodd" d="M539.592,623.456c-42.62-37.934-74.033,13.393-31.098,56.11l353.761,335.887 L539.592,623.456z"/> </g> </g> <g opacity="0.3077"> <path fill-rule="evenodd" clip-rule="evenodd" d="M999.058,1195.177l-161.779,82.85l269.858,418.42l623.109-1009.312 C1339.027,533.195,1249.299,1101.473,999.058,1195.177z"/> <g> <path fill-rule="evenodd" clip-rule="evenodd" d="M672.584,1284.155c-38.202,21.26-18.246,65.168,22.982,45.368l329.855-168.929 L672.584,1284.155z"/> <path fill-rule="evenodd" clip-rule="evenodd" d="M610.537,1156.913c-41.903,7.295-33.957,56.078,10.474,51.177l358.103-49.103 L610.537,1156.913z"/> <path fill-rule="evenodd" clip-rule="evenodd" d="M565.723,993.373c-45.79-7.82-50.849,46.085-3.09,57.351l387.705,80.693 L565.723,993.373z"/> <path fill-rule="evenodd" clip-rule="evenodd" d="M541.051,814.731c-47.83-24.116-67.016,32.797-17.91,61.338l401.326,219.975 L541.051,814.731z"/> <path fill-rule="evenodd" clip-rule="evenodd" d="M537.405,621.612c-42.62-37.934-74.033,13.393-31.098,56.11l353.761,335.887 L537.405,621.612z"/> </g> </g> <g opacity="0.3846"> <path fill-rule="evenodd" clip-rule="evenodd" d="M996.871,1193.333l-161.779,82.85l269.858,418.42l623.109-1009.313 C1336.84,531.35,1247.112,1099.629,996.871,1193.333z"/> <g> <path fill-rule="evenodd" clip-rule="evenodd" d="M670.397,1282.31c-38.202,21.26-18.246,65.168,22.982,45.368l329.855-168.929 L670.397,1282.31z"/> <path fill-rule="evenodd" clip-rule="evenodd" d="M608.35,1155.069c-41.903,7.295-33.957,56.078,10.474,51.177l358.103-49.103 L608.35,1155.069z"/> <path fill-rule="evenodd" clip-rule="evenodd" d="M563.536,991.528c-45.791-7.82-50.849,46.085-3.09,57.351l387.705,80.693 L563.536,991.528z"/> <path fill-rule="evenodd" clip-rule="evenodd" d="M538.863,812.887c-47.83-24.116-67.016,32.797-17.91,61.338L922.279,1094.2 L538.863,812.887z"/> <path fill-rule="evenodd" clip-rule="evenodd" d="M535.217,619.768c-42.619-37.934-74.033,13.393-31.098,56.11l353.761,335.887 L535.217,619.768z"/> </g> </g> <g opacity="0.4615"> <path fill-rule="evenodd" clip-rule="evenodd" d="M994.683,1191.489l-161.779,82.85l269.858,418.42l623.109-1009.313 C1334.652,529.506,1244.925,1097.785,994.683,1191.489z"/> <g> <path fill-rule="evenodd" clip-rule="evenodd" d="M668.209,1280.466c-38.202,21.26-18.246,65.168,22.982,45.368l329.855-168.929 L668.209,1280.466z"/> <path fill-rule="evenodd" clip-rule="evenodd" d="M606.162,1153.224c-41.903,7.295-33.957,56.078,10.474,51.177l358.102-49.103 L606.162,1153.224z"/> <path fill-rule="evenodd" clip-rule="evenodd" d="M561.348,989.684c-45.79-7.82-50.849,46.085-3.09,57.351l387.705,80.693 L561.348,989.684z"/> <path fill-rule="evenodd" clip-rule="evenodd" d="M536.676,811.043c-47.83-24.116-67.016,32.797-17.91,61.338l401.326,219.975 L536.676,811.043z"/> <path fill-rule="evenodd" clip-rule="evenodd" d="M533.03,617.924c-42.62-37.934-74.033,13.393-31.098,56.109l353.761,335.887 L533.03,617.924z"/> </g> </g> <g opacity="0.5385"> <path fill-rule="evenodd" clip-rule="evenodd" d="M992.496,1189.645l-161.779,82.85l269.858,418.42l623.109-1009.313 C1332.465,527.662,1242.737,1095.94,992.496,1189.645z"/> <g> <path fill-rule="evenodd" clip-rule="evenodd" d="M666.022,1278.622c-38.202,21.26-18.246,65.168,22.982,45.368l329.855-168.929 L666.022,1278.622z"/> <path fill-rule="evenodd" clip-rule="evenodd" d="M603.975,1151.38c-41.903,7.295-33.957,56.078,10.474,51.177l358.102-49.103 L603.975,1151.38z"/> <path fill-rule="evenodd" clip-rule="evenodd" d="M559.161,987.84c-45.79-7.82-50.849,46.085-3.09,57.351l387.705,80.693 L559.161,987.84z"/> <path fill-rule="evenodd" clip-rule="evenodd" d="M534.488,809.198c-47.83-24.116-67.016,32.797-17.91,61.338l401.326,219.975 L534.488,809.198z"/> <path fill-rule="evenodd" clip-rule="evenodd" d="M530.842,616.08c-42.62-37.934-74.033,13.393-31.098,56.109l353.761,335.887 L530.842,616.08z"/> </g> </g> <g opacity="0.6154"> <path fill-rule="evenodd" clip-rule="evenodd" d="M990.308,1187.801l-161.779,82.85l269.858,418.42l623.109-1009.313 C1330.277,525.818,1240.55,1094.096,990.308,1187.801z"/> <g> <path fill-rule="evenodd" clip-rule="evenodd" d="M663.834,1276.778c-38.202,21.26-18.246,65.168,22.982,45.368l329.855-168.929 L663.834,1276.778z"/> <path fill-rule="evenodd" clip-rule="evenodd" d="M601.787,1149.536c-41.903,7.295-33.957,56.078,10.474,51.177l358.102-49.103 L601.787,1149.536z"/> <path fill-rule="evenodd" clip-rule="evenodd" d="M556.973,985.996c-45.79-7.82-50.849,46.085-3.09,57.351l387.705,80.693 L556.973,985.996z"/> <path fill-rule="evenodd" clip-rule="evenodd" d="M532.301,807.354c-47.83-24.116-67.016,32.797-17.91,61.338l401.326,219.975 L532.301,807.354z"/> <path fill-rule="evenodd" clip-rule="evenodd" d="M528.655,614.236c-42.62-37.934-74.033,13.393-31.098,56.109l353.761,335.887 L528.655,614.236z"/> </g> </g> <g opacity="0.6923"> <path fill-rule="evenodd" clip-rule="evenodd" d="M988.121,1185.957l-161.779,82.85l269.858,418.42l623.109-1009.312 C1328.09,523.974,1238.362,1092.252,988.121,1185.957z"/> <g> <path fill-rule="evenodd" clip-rule="evenodd" d="M661.647,1274.934c-38.202,21.26-18.246,65.168,22.982,45.368l329.855-168.929 L661.647,1274.934z"/> <path fill-rule="evenodd" clip-rule="evenodd" d="M599.6,1147.692c-41.903,7.295-33.957,56.078,10.474,51.177l358.102-49.103 L599.6,1147.692z"/> <path fill-rule="evenodd" clip-rule="evenodd" d="M554.786,984.152c-45.791-7.82-50.849,46.085-3.09,57.351l387.705,80.693 L554.786,984.152z"/> <path fill-rule="evenodd" clip-rule="evenodd" d="M530.114,805.51c-47.83-24.116-67.016,32.797-17.91,61.338l401.326,219.975 L530.114,805.51z"/> <path fill-rule="evenodd" clip-rule="evenodd" d="M526.467,612.391c-42.619-37.934-74.033,13.393-31.098,56.109l353.761,335.887 L526.467,612.391z"/> </g> </g> <g opacity="0.7692"> <path fill-rule="evenodd" clip-rule="evenodd" d="M985.933,1184.113l-161.779,82.85l269.858,418.42L1717.122,676.07 C1325.902,522.13,1236.175,1090.408,985.933,1184.113z"/> <g> <path fill-rule="evenodd" clip-rule="evenodd" d="M659.46,1273.089c-38.202,21.26-18.246,65.168,22.982,45.368l329.855-168.929 L659.46,1273.089z"/> <path fill-rule="evenodd" clip-rule="evenodd" d="M597.412,1145.848c-41.903,7.295-33.957,56.078,10.474,51.177l358.102-49.103 L597.412,1145.848z"/> <path fill-rule="evenodd" clip-rule="evenodd" d="M552.599,982.307c-45.79-7.82-50.849,46.085-3.09,57.351l387.705,80.693 L552.599,982.307z"/> <path fill-rule="evenodd" clip-rule="evenodd" d="M527.926,803.666c-47.83-24.116-67.016,32.797-17.91,61.338l401.326,219.975 L527.926,803.666z"/> <path fill-rule="evenodd" clip-rule="evenodd" d="M524.28,610.547c-42.62-37.934-74.033,13.393-31.098,56.109l353.761,335.887 L524.28,610.547z"/> </g> </g> <g opacity="0.8462"> <path fill-rule="evenodd" clip-rule="evenodd" d="M983.746,1182.268l-161.779,82.85l269.858,418.42l623.109-1009.313 C1323.715,520.285,1233.987,1088.564,983.746,1182.268z"/> <g> <path fill-rule="evenodd" clip-rule="evenodd" d="M657.272,1271.245c-38.202,21.26-18.246,65.168,22.982,45.368l329.855-168.929 L657.272,1271.245z"/> <path fill-rule="evenodd" clip-rule="evenodd" d="M595.225,1144.004c-41.903,7.295-33.957,56.078,10.474,51.177l358.102-49.103 L595.225,1144.004z"/> <path fill-rule="evenodd" clip-rule="evenodd" d="M550.411,980.463c-45.79-7.82-50.849,46.085-3.09,57.351l387.705,80.693 L550.411,980.463z"/> <path fill-rule="evenodd" clip-rule="evenodd" d="M525.739,801.822c-47.83-24.116-67.016,32.797-17.91,61.338l401.326,219.975 L525.739,801.822z"/> <path fill-rule="evenodd" clip-rule="evenodd" d="M522.093,608.703c-42.62-37.934-74.033,13.393-31.098,56.109L844.755,1000.7 L522.093,608.703z"/> </g> </g> <g opacity="0.9231"> <path fill-rule="evenodd" clip-rule="evenodd" d="M981.559,1180.424l-161.779,82.85l269.858,418.42l623.109-1009.312 C1321.528,518.441,1231.8,1086.719,981.559,1180.424z"/> <g> <path fill-rule="evenodd" clip-rule="evenodd" d="M655.085,1269.401c-38.202,21.26-18.246,65.168,22.982,45.368l329.855-168.929 L655.085,1269.401z"/> <path fill-rule="evenodd" clip-rule="evenodd" d="M593.038,1142.16c-41.903,7.295-33.957,56.078,10.474,51.177l358.102-49.103 L593.038,1142.16z"/> <path fill-rule="evenodd" clip-rule="evenodd" d="M548.224,978.619c-45.79-7.82-50.849,46.085-3.09,57.351l387.705,80.692 L548.224,978.619z"/> <path fill-rule="evenodd" clip-rule="evenodd" d="M523.551,799.978c-47.83-24.116-67.016,32.796-17.91,61.338l401.326,219.975 L523.551,799.978z"/> <path fill-rule="evenodd" clip-rule="evenodd" d="M519.905,606.859c-42.62-37.934-74.033,13.393-31.098,56.109l353.761,335.887 L519.905,606.859z"/> </g> </g> <g> <path fill-rule="evenodd" clip-rule="evenodd" d="M979.371,1178.58l-161.779,82.85l269.858,418.42L1710.56,670.537 C1319.34,516.597,1229.613,1084.875,979.371,1178.58z"/> <g> <path fill-rule="evenodd" clip-rule="evenodd" d="M652.897,1267.557c-38.202,21.26-18.246,65.168,22.982,45.368l329.855-168.929 L652.897,1267.557z"/> <path fill-rule="evenodd" clip-rule="evenodd" d="M590.85,1140.315c-41.903,7.295-33.957,56.078,10.474,51.177l358.102-49.103 L590.85,1140.315z"/> <path fill-rule="evenodd" clip-rule="evenodd" d="M546.036,976.775c-45.79-7.82-50.849,46.085-3.09,57.351l387.705,80.693 L546.036,976.775z"/> <path fill-rule="evenodd" clip-rule="evenodd" d="M521.364,798.133c-47.83-24.116-67.016,32.797-17.91,61.338l401.326,219.975 L521.364,798.133z"/> <path fill-rule="evenodd" clip-rule="evenodd" d="M517.718,605.015c-42.62-37.934-74.033,13.393-31.098,56.109L840.38,997.011 L517.718,605.015z"/> </g> </g> </g> <g> <path fill-rule="evenodd" clip-rule="evenodd" fill="#99D9E8" d="M979.371,1178.58l-161.779,82.85l269.858,418.42L1710.56,670.537 C1319.34,516.597,1229.613,1084.875,979.371,1178.58z"/> <g> <linearGradient id="SVGID_2_" gradientUnits="userSpaceOnUse" x1="632.5095" y1="1230.9628" x2="1005.7341" y2="1230.9628"> <stop offset="0.0112" style="stop-color:#DCB758"/> <stop offset="0.0499" style="stop-color:#E0BF62"/> <stop offset="0.1572" style="stop-color:#E9D277"/> <stop offset="0.2617" style="stop-color:#EFDD84"/> <stop offset="0.3596" style="stop-color:#F1E188"/> <stop offset="0.4867" style="stop-color:#E6D279"/> <stop offset="0.7311" style="stop-color:#CAAB52"/> <stop offset="1" style="stop-color:#A67A20"/> </linearGradient> <path fill-rule="evenodd" clip-rule="evenodd" fill="url(#SVGID_2_)" d="M652.897,1267.557 c-38.202,21.26-18.246,65.168,22.982,45.368l329.855-168.929L652.897,1267.557z"/> <linearGradient id="SVGID_3_" gradientUnits="userSpaceOnUse" x1="563.3455" y1="1166.0765" x2="959.4265" y2="1166.0765"> <stop offset="0.0112" style="stop-color:#DCB758"/> <stop offset="0.0499" style="stop-color:#E0BF62"/> <stop offset="0.1572" style="stop-color:#E9D277"/> <stop offset="0.2617" style="stop-color:#EFDD84"/> <stop offset="0.3596" style="stop-color:#F1E188"/> <stop offset="0.4867" style="stop-color:#E6D279"/> <stop offset="0.7311" style="stop-color:#CAAB52"/> <stop offset="1" style="stop-color:#A67A20"/> </linearGradient> <path fill-rule="evenodd" clip-rule="evenodd" fill="url(#SVGID_3_)" d="M590.85,1140.315 c-41.903,7.295-33.957,56.078,10.474,51.177l358.102-49.103L590.85,1140.315z"/> <linearGradient id="SVGID_4_" gradientUnits="userSpaceOnUse" x1="509.3438" y1="1045.4109" x2="930.6512" y2="1045.4109"> <stop offset="0.0112" style="stop-color:#DCB758"/> <stop offset="0.0499" style="stop-color:#E0BF62"/> <stop offset="0.1572" style="stop-color:#E9D277"/> <stop offset="0.2617" style="stop-color:#EFDD84"/> <stop offset="0.3596" style="stop-color:#F1E188"/> <stop offset="0.4867" style="stop-color:#E6D279"/> <stop offset="0.7311" style="stop-color:#CAAB52"/> <stop offset="1" style="stop-color:#A67A20"/> </linearGradient> <path fill-rule="evenodd" clip-rule="evenodd" fill="url(#SVGID_4_)" d="M546.036,976.775c-45.79-7.82-50.849,46.085-3.09,57.351 l387.705,80.693L546.036,976.775z"/> <linearGradient id="SVGID_5_" gradientUnits="userSpaceOnUse" x1="474.7596" y1="935.884" x2="904.7792" y2="935.884"> <stop offset="0.0112" style="stop-color:#DCB758"/> <stop offset="0.0499" style="stop-color:#E0BF62"/> <stop offset="0.1572" style="stop-color:#E9D277"/> <stop offset="0.2617" style="stop-color:#EFDD84"/> <stop offset="0.3596" style="stop-color:#F1E188"/> <stop offset="0.4867" style="stop-color:#E6D279"/> <stop offset="0.7311" style="stop-color:#CAAB52"/> <stop offset="1" style="stop-color:#A67A20"/> </linearGradient> <path fill-rule="evenodd" clip-rule="evenodd" fill="url(#SVGID_5_)" d="M521.364,798.133 c-47.83-24.116-67.016,32.797-17.91,61.338l401.326,219.975L521.364,798.133z"/> <linearGradient id="SVGID_6_" gradientUnits="userSpaceOnUse" x1="466.1267" y1="794.3896" x2="840.3801" y2="794.3896"> <stop offset="0.0112" style="stop-color:#DCB758"/> <stop offset="0.0499" style="stop-color:#E0BF62"/> <stop offset="0.1572" style="stop-color:#E9D277"/> <stop offset="0.2617" style="stop-color:#EFDD84"/> <stop offset="0.3596" style="stop-color:#F1E188"/> <stop offset="0.4867" style="stop-color:#E6D279"/> <stop offset="0.7311" style="stop-color:#CAAB52"/> <stop offset="1" style="stop-color:#A67A20"/> </linearGradient> <path fill-rule="evenodd" clip-rule="evenodd" fill="url(#SVGID_6_)" d="M517.718,605.015 c-42.62-37.934-74.033,13.393-31.098,56.109L840.38,997.011L517.718,605.015z"/> </g> </g> </svg>